<svg width="136" height="30" viewBox="0 0 136 30" fill="none" xmlns="http://www.w3.org/2000/svg">
<path d="M40.7402 10.2881L40.7871 12.3506C41.2559 11.585 41.8418 11.0107 42.5449 10.6279C43.248 10.2451 44.0293 10.0537 44.8887 10.0537C46.8887 10.0537 48.1582 10.874 48.6973 12.5146C49.1504 11.7256 49.7559 11.1201 50.5137 10.6982C51.2715 10.2686 52.1074 10.0537 53.0215 10.0537C55.7402 10.0537 57.127 11.5381 57.1816 14.5068V22.9678H55.7754V14.6123C55.7676 13.4795 55.5215 12.6396 55.0371 12.0928C54.5605 11.5459 53.7793 11.2725 52.6934 11.2725C51.6855 11.2881 50.834 11.6162 50.1387 12.2568C49.4434 12.8896 49.0566 13.6631 48.9785 14.5771V22.9678H47.5723V14.5068C47.5645 13.4209 47.3066 12.6123 46.7988 12.0811C46.2988 11.542 45.5254 11.2725 44.4785 11.2725C43.5957 11.2725 42.8379 11.5264 42.2051 12.0342C41.5723 12.5342 41.1035 13.2803 40.7988 14.2725V22.9678H39.3926V10.2881H40.7402ZM62.3145 22.9678H60.9082V10.2881H62.3145V22.9678ZM60.6621 6.62012C60.6621 6.35449 60.748 6.13184 60.9199 5.95215C61.0918 5.76465 61.3262 5.6709 61.623 5.6709C61.9199 5.6709 62.1543 5.76465 62.3262 5.95215C62.5059 6.13184 62.5957 6.35449 62.5957 6.62012C62.5957 6.88574 62.5059 7.1084 62.3262 7.28809C62.1543 7.46777 61.9199 7.55762 61.623 7.55762C61.3262 7.55762 61.0918 7.46777 60.9199 7.28809C60.748 7.1084 60.6621 6.88574 60.6621 6.62012ZM70.8223 22.0186C71.7988 22.0186 72.6152 21.7451 73.2715 21.1982C73.9355 20.6436 74.2949 19.9287 74.3496 19.0537H75.6973C75.6582 19.8271 75.416 20.5342 74.9707 21.1748C74.5254 21.8076 73.9316 22.3037 73.1895 22.6631C72.4551 23.0225 71.666 23.2021 70.8223 23.2021C69.1582 23.2021 67.8379 22.624 66.8613 21.4678C65.8926 20.3115 65.4082 18.7568 65.4082 16.8037V16.3818C65.4082 15.1318 65.627 14.0264 66.0645 13.0654C66.502 12.1045 67.127 11.3623 67.9395 10.8389C68.7598 10.3154 69.7168 10.0537 70.8105 10.0537C72.2012 10.0537 73.3457 10.4678 74.2441 11.2959C75.1504 12.124 75.6348 13.2139 75.6973 14.5654H74.3496C74.2871 13.5732 73.9277 12.7725 73.2715 12.1631C72.623 11.5537 71.8027 11.249 70.8105 11.249C69.5449 11.249 68.5605 11.7061 67.8574 12.6201C67.1621 13.5342 66.8145 14.8154 66.8145 16.4639V16.874C66.8145 18.4912 67.1621 19.7529 67.8574 20.6592C68.5605 21.5654 69.5488 22.0186 70.8223 22.0186ZM84.3691 11.4834C84.0723 11.4287 83.7559 11.4014 83.4199 11.4014C82.5449 11.4014 81.8027 11.6475 81.1934 12.1396C80.5918 12.624 80.1621 13.3311 79.9043 14.2607V22.9678H78.5098V10.2881H79.8809L79.9043 12.3037C80.6465 10.8037 81.8379 10.0537 83.4785 10.0537C83.8691 10.0537 84.1777 10.1045 84.4043 10.2061L84.3691 11.4834ZM85.5879 16.4404C85.5879 15.2217 85.8223 14.124 86.291 13.1475C86.7676 12.1709 87.4355 11.4131 88.2949 10.874C89.1621 10.3271 90.1426 10.0537 91.2363 10.0537C92.9238 10.0537 94.291 10.6475 95.3379 11.835C96.3848 13.0146 96.9082 14.5811 96.9082 16.5342V16.8271C96.9082 18.0537 96.6699 19.1592 96.1934 20.1436C95.7246 21.1201 95.0605 21.874 94.2012 22.4053C93.3418 22.9365 92.3613 23.2021 91.2598 23.2021C89.5801 23.2021 88.2129 22.6123 87.1582 21.4326C86.1113 20.2451 85.5879 18.6748 85.5879 16.7217V16.4404ZM86.9941 16.8271C86.9941 18.3428 87.3848 19.5889 88.166 20.5654C88.9551 21.5342 89.9863 22.0186 91.2598 22.0186C92.5254 22.0186 93.5488 21.5342 94.3301 20.5654C95.1191 19.5889 95.5137 18.3037 95.5137 16.71V16.4404C95.5137 15.4717 95.334 14.585 94.9746 13.7803C94.6152 12.9756 94.1113 12.3545 93.4629 11.917C92.8145 11.4717 92.0723 11.249 91.2363 11.249C89.9863 11.249 88.9668 11.7412 88.1777 12.7256C87.3887 13.7021 86.9941 14.9834 86.9941 16.5693V16.8271Z" fill="white"/>
<path d="M109.271 18.9951H102.662L101.279 22.9678H98.1973L104.643 5.90527H107.303L113.76 22.9678H110.666L109.271 18.9951ZM103.494 16.6045H108.439L105.967 9.52637L103.494 16.6045ZM118.67 16.6279V22.9678H115.705V5.90527H122.232C124.139 5.90527 125.65 6.40137 126.768 7.39355C127.893 8.38574 128.455 9.69824 128.455 11.3311C128.455 13.0029 127.904 14.3037 126.803 15.2334C125.709 16.1631 124.174 16.6279 122.197 16.6279H118.67ZM118.67 14.249H122.232C123.287 14.249 124.092 14.0029 124.646 13.5107C125.201 13.0107 125.479 12.292 125.479 11.3545C125.479 10.4326 125.197 9.69824 124.635 9.15137C124.072 8.59668 123.299 8.31152 122.314 8.2959H118.67V14.249ZM133.811 22.9678H130.963V10.2881H133.811V22.9678ZM130.787 6.99512C130.787 6.55762 130.924 6.19434 131.197 5.90527C131.479 5.61621 131.877 5.47168 132.393 5.47168C132.908 5.47168 133.307 5.61621 133.588 5.90527C133.869 6.19434 134.01 6.55762 134.01 6.99512C134.01 7.4248 133.869 7.78418 133.588 8.07324C133.307 8.35449 132.908 8.49512 132.393 8.49512C131.877 8.49512 131.479 8.35449 131.197 8.07324C130.924 7.78418 130.787 7.4248 130.787 6.99512Z" fill="#58BF8E"/>
<path d="M15.5002 2.5L2.5835 8.75L15.5002 15L28.4168 8.75L15.5002 2.5Z" stroke="white" stroke-width="1.71069" stroke-linecap="round" stroke-linejoin="round"/>
<path d="M2.5835 21.25L15.5002 27.5L28.4168 21.25" stroke="white" stroke-width="1.71069" stroke-linecap="round" stroke-linejoin="round"/>
<path d="M2.5835 15L15.5002 21.25L28.4168 15" stroke="white" stroke-width="1.71069" stroke-linecap="round" stroke-linejoin="round"/>
</svg>
