<svg width="40" height="40" viewBox="0 0 40 40" fill="none" xmlns="http://www.w3.org/2000/svg">
<path d="M38.4 0H1.6C0.715 0 0 0.715 0 1.6V38.4C0 39.285 0.715 40 1.6 40H38.4C39.285 40 40 39.285 40 38.4V1.6C40 0.715 39.285 0 38.4 0ZM21.825 25.54C19.63 28.63 15.22 29.53 11.78 28.205C8.33 26.89 5.88 23.245 6.175 19.53C6.25 14.985 10.435 11 14.98 11.155C17.16 11.055 19.21 12 20.88 13.335C20.165 14.145 19.43 14.925 18.64 15.65C16.635 14.265 13.78 13.87 11.775 15.47C8.905 17.455 8.775 22.14 11.535 24.275C14.22 26.71 19.295 25.5 20.04 21.77C18.36 21.745 16.67 21.77 14.99 21.715C14.985 20.71 14.98 19.71 14.985 18.705C17.795 18.695 20.61 18.69 23.425 18.715C23.59 21.08 23.275 23.59 21.825 25.54ZM33.95 21.225C33.11 21.235 32.27 21.24 31.43 21.245C31.42 22.085 31.415 22.925 31.415 23.765H28.9C28.89 22.925 28.89 22.09 28.885 21.25C28.045 21.24 27.205 21.235 26.365 21.225V18.72C27.205 18.71 28.045 18.705 28.885 18.705C28.89 17.865 28.9 17.025 28.905 16.185H31.415L31.43 18.705C32.27 18.715 33.11 18.715 33.95 18.72V21.225Z" fill="#DD4B39"/>
<path d="M38.4 0H1.6C0.715 0 0 0.715 0 1.6V38.4C0 39.285 0.715 40 1.6 40H38.4C39.285 40 40 39.285 40 38.4V1.6C40 0.715 39.285 0 38.4 0ZM21.825 25.54C19.63 28.63 15.22 29.53 11.78 28.205C8.33 26.89 5.88 23.245 6.175 19.53C6.25 14.985 10.435 11 14.98 11.155C17.16 11.055 19.21 12 20.88 13.335C20.165 14.145 19.43 14.925 18.64 15.65C16.635 14.265 13.78 13.87 11.775 15.47C8.905 17.455 8.775 22.14 11.535 24.275C14.22 26.71 19.295 25.5 20.04 21.77C18.36 21.745 16.67 21.77 14.99 21.715C14.985 20.71 14.98 19.71 14.985 18.705C17.795 18.695 20.61 18.69 23.425 18.715C23.59 21.08 23.275 23.59 21.825 25.54ZM33.95 21.225C33.11 21.235 32.27 21.24 31.43 21.245C31.42 22.085 31.415 22.925 31.415 23.765H28.9C28.89 22.925 28.89 22.09 28.885 21.25C28.045 21.24 27.205 21.235 26.365 21.225V18.72C27.205 18.71 28.045 18.705 28.885 18.705C28.89 17.865 28.9 17.025 28.905 16.185H31.415L31.43 18.705C32.27 18.715 33.11 18.715 33.95 18.72V21.225Z" fill="#DD4B39"/>
</svg>
