<svg width="283" height="279" viewBox="0 0 283 279" fill="none" xmlns="http://www.w3.org/2000/svg">
<path d="M95.3847 165.917L95.9238 163.103L93.7677 161.215L78.8817 148.181C78.0161 147.423 77.3284 146.497 76.8592 145.468C76.3902 144.439 76.1491 143.328 76.1491 142.205V122V117H71.1491H49.1071C44.4932 117 40.8819 113.335 40.8819 108.972V87.2587V82.2587H35.8819H13.8399C9.22601 82.2587 5.61472 78.594 5.61472 74.2309V13.4345C5.61472 9.07144 9.22601 5.40674 13.8399 5.40674L56.8544 5.40674C59.0595 5.40674 61.1601 6.27054 62.6974 7.78427C62.6975 7.7844 62.6976 7.78453 62.6978 7.78466L151.858 95.6144L154.023 97.7464L156.912 96.8078C165.984 93.8608 175.681 92.2587 185.768 92.2587C236.641 92.2587 277.752 132.864 277.752 182.795C277.753 232.883 236.799 273.333 185.767 273.333C134.894 273.333 93.7828 232.728 93.7828 182.796C93.7828 177.027 94.337 171.387 95.3847 165.917ZM212.218 177.796C194.919 177.796 180.768 191.629 180.768 208.852C180.768 226.074 194.919 239.907 212.218 239.907C229.517 239.907 243.668 226.074 243.668 208.852C243.668 191.629 229.517 177.796 212.218 177.796Z" stroke="#D14E4E" stroke-width="10"/>
</svg>
