<svg width="29" height="30" viewBox="0 0 29 30" fill="none" xmlns="http://www.w3.org/2000/svg">
<path d="M13.5333 27.5C20.2068 27.5 25.6167 21.9036 25.6167 15C25.6167 8.09644 20.2068 2.5 13.5333 2.5C6.85989 2.5 1.45 8.09644 1.45 15C1.45 21.9036 6.85989 27.5 13.5333 27.5Z" stroke="#31AA52" stroke-width="2" stroke-linecap="round" stroke-linejoin="round"/>
<path d="M10.9838 11.25C11.2679 10.4146 11.8286 9.71013 12.5666 9.26141C13.3047 8.81269 14.1724 8.64867 15.0162 8.79838C15.8599 8.9481 16.6253 9.4019 17.1766 10.0794C17.7279 10.7569 18.0296 11.6144 18.0284 12.5C18.0284 15 14.4034 16.25 14.4034 16.25" stroke="#31AA52" stroke-width="2" stroke-linecap="round" stroke-linejoin="round"/>
<path d="M14.5 21.25H14.5125" stroke="#31AA52" stroke-width="2" stroke-linecap="round" stroke-linejoin="round"/>
</svg>
