<svg width="40" height="40" viewBox="0 0 40 40" fill="none" xmlns="http://www.w3.org/2000/svg">
<path d="M38.4 0H1.6C0.715 0 0 0.715 0 1.6V38.4C0 39.285 0.715 40 1.6 40H38.4C39.285 40 40 39.285 40 38.4V1.6C40 0.715 39.285 0 38.4 0ZM30.765 14.485C30.78 14.72 30.78 14.965 30.78 15.205C30.78 22.545 25.19 31 14.975 31C11.825 31 8.905 30.085 6.445 28.51C6.895 28.56 7.325 28.58 7.785 28.58C10.385 28.58 12.775 27.7 14.68 26.21C12.24 26.16 10.19 24.56 9.49 22.36C10.345 22.485 11.115 22.485 11.995 22.26C10.7386 22.0048 9.60938 21.3224 8.79908 20.3289C7.98879 19.3354 7.54743 18.092 7.55 16.81V16.74C8.285 17.155 9.15 17.41 10.055 17.445C9.29421 16.938 8.67029 16.2511 8.23856 15.4451C7.80682 14.6392 7.58062 13.7393 7.58 12.825C7.58 11.79 7.85 10.845 8.335 10.025C9.72951 11.7417 11.4697 13.1457 13.4423 14.1458C15.415 15.1459 17.576 15.7198 19.785 15.83C19 12.055 21.82 9 25.21 9C26.81 9 28.25 9.67 29.265 10.75C30.52 10.515 31.72 10.045 32.79 9.415C32.375 10.7 31.505 11.785 30.35 12.47C31.47 12.35 32.55 12.04 33.55 11.605C32.795 12.715 31.85 13.7 30.765 14.485Z" fill="#1DA1F2"/>
</svg>
