<svg width="111" height="112" viewBox="0 0 111 112" fill="none" xmlns="http://www.w3.org/2000/svg">
<g filter="url(#filter0_d)">
<circle cx="53" cy="53" r="53" fill="#0277BD" fill-opacity="0.17"/>
</g>
<ellipse cx="52.5" cy="53" rx="43.5" ry="44" fill="#31AA52"/>
<path d="M72.5714 36H31.4286C30.5193 36 29.6472 36.3582 29.0042 36.9958C28.3612 37.6335 28 38.4983 28 39.4V66.6C28 67.5017 28.3612 68.3665 29.0042 69.0042C29.6472 69.6418 30.5193 70 31.4286 70H72.5714C73.4807 70 74.3528 69.6418 74.9958 69.0042C75.6388 68.3665 76 67.5017 76 66.6V39.4C76 38.4983 75.6388 37.6335 74.9958 36.9958C74.3528 36.3582 73.4807 36 72.5714 36ZM68.8 39.4L52 50.926L35.2 39.4H68.8ZM31.4286 66.6V40.947L51.0229 54.394C51.3098 54.5914 51.6507 54.6972 52 54.6972C52.3493 54.6972 52.6902 54.5914 52.9771 54.394L72.5714 40.947V66.6H31.4286Z" fill="white"/>
<defs>
<filter id="filter0_d" x="0" y="0" width="111" height="112" filterUnits="userSpaceOnUse" color-interpolation-filters="sRGB">
<feFlood flood-opacity="0" result="BackgroundImageFix"/>
<feColorMatrix in="SourceAlpha" type="matrix" values="0 0 0 0 0 0 0 0 0 0 0 0 0 0 0 0 0 0 127 0"/>
<feOffset dx="3" dy="4"/>
<feGaussianBlur stdDeviation="1"/>
<feColorMatrix type="matrix" values="0 0 0 0 0 0 0 0 0 0 0 0 0 0 0 0 0 0 0.02 0"/>
<feBlend mode="normal" in2="BackgroundImageFix" result="effect1_dropShadow"/>
<feBlend mode="normal" in="SourceGraphic" in2="effect1_dropShadow" result="shape"/>
</filter>
</defs>
</svg>
