<svg width="108" height="19" viewBox="0 0 108 19" fill="none" xmlns="http://www.w3.org/2000/svg">
<path d="M15.7173 5.30667C13.442 5.30667 11.6458 6.3365 10.7357 7.96508C9.96934 6.1928 8.34076 5.30667 6.25714 5.30667C4.14957 5.30667 2.52099 6.1928 1.63485 7.70163V5.40246H0.00627299V18H1.7067V11.3899C1.7067 8.51592 3.35923 6.83945 5.92185 6.83945C8.22102 6.83945 9.5622 8.20458 9.5622 10.863V18H11.2626V11.3899C11.2626 8.51592 12.8912 6.83945 15.4778 6.83945C17.753 6.83945 19.0942 8.20458 19.0942 10.863V18H20.7946V10.6953C20.7946 7.07894 18.7828 5.30667 15.7173 5.30667ZM26.2682 2.64825C26.9867 2.64825 27.5136 2.09741 27.5136 1.40287C27.5136 0.756225 26.9628 0.229332 26.2682 0.229332C25.5737 0.229332 25.0228 0.780175 25.0228 1.42682C25.0228 2.09741 25.5737 2.64825 26.2682 2.64825ZM25.406 18H27.1065V5.40246H25.406V18ZM37.0589 18.1197C39.1904 18.1197 40.9866 17.2576 41.9925 15.629L40.7232 14.7668C39.861 16.0361 38.5198 16.6109 37.0589 16.6109C34.3047 16.6109 32.2929 14.671 32.2929 11.7012C32.2929 8.75542 34.3047 6.79155 37.0589 6.79155C38.5198 6.79155 39.861 7.39029 40.7232 8.65962L41.9925 7.79743C40.9866 6.1449 39.1904 5.30667 37.0589 5.30667C33.2988 5.30667 30.5685 7.94113 30.5685 11.7012C30.5685 15.4613 33.2988 18.1197 37.0589 18.1197ZM46.9615 7.86928V5.40246H45.3329V18H47.0334V11.5815C47.0334 8.61172 48.638 6.93524 51.2724 6.93524C51.3922 6.93524 51.5359 6.95919 51.6796 6.95919V5.30667C49.3565 5.30667 47.7518 6.1928 46.9615 7.86928ZM59.7907 18.1197C63.4789 18.1197 66.1852 15.4374 66.1852 11.7012C66.1852 7.96508 63.4789 5.30667 59.7907 5.30667C56.1024 5.30667 53.3722 7.96508 53.3722 11.7012C53.3722 15.4374 56.1024 18.1197 59.7907 18.1197ZM59.7907 16.6109C57.1083 16.6109 55.0965 14.647 55.0965 11.7012C55.0965 8.75542 57.1083 6.79155 59.7907 6.79155C62.473 6.79155 64.4609 8.75542 64.4609 11.7012C64.4609 14.647 62.473 16.6109 59.7907 16.6109ZM82.0867 18H85.3439L77.7758 1.23522H74.7102L67.1661 18H70.3753L72.0278 14.1202H80.4102L82.0867 18ZM73.0816 11.6773L76.219 4.34868L79.3804 11.6773H73.0816ZM94.3735 1.23522H87.476V18H90.5894V13.1622H94.3735C98.7802 13.1622 101.51 10.8869 101.51 7.19869C101.51 3.48649 98.7802 1.23522 94.3735 1.23522ZM94.2298 10.5277H90.5894V3.86968H94.2298C96.96 3.86968 98.3731 5.09112 98.3731 7.19869C98.3731 9.30626 96.96 10.5277 94.2298 10.5277ZM104.62 18H107.733V1.23522H104.62V18Z" fill="white"/>
</svg>
