<?xml version="1.0"?>
<svg xmlns="http://www.w3.org/2000/svg" xmlns:xlink="http://www.w3.org/1999/xlink" version="1.1" id="Capa_1" x="0px" y="0px" viewBox="0 0 392 392" style="enable-background:new 0 0 392 392;" xml:space="preserve" width="512px" height="512px" class=""><g><g>
	<g>
		<path d="M376.5,255.7c-3.3,4-7.2,7.6-11.5,10.5V311h5.6c11.8,0,21.3-9.5,21.4-21.2v-54.1L376.5,255.7z" data-original="#000000" class="active-path" data-old_color="#000000" fill="#67A766"/>
	</g>
</g><g>
	<g>
		<path d="M282,160h57.7c1.7,0,3.5-0.2,5.3-0.6v-57.2c0-11.8-9.6-21.2-21.3-21.2H21.4C9.6,81,0.1,90.5,0,102.2v229.3    c0.1,11.8,9.6,21.4,21.4,21.5h302.3c11.8-0.1,21.3-9.7,21.3-21.5l-0.1-58.1c-1.7,0.2-3.5,0.4-5.3,0.5H282    c-31.4-0.1-56.9-25.6-56.9-57C225.1,185.5,250.6,160,282,160z" data-original="#000000" class="active-path" data-old_color="#000000" fill="#67A766"/>
	</g>
</g><g>
	<g>
		<path d="M370.6,39H68.3C56.5,39.1,47,48.7,47,60.5V61h276.7c22.8,0,41.3,18.4,41.3,41.2V144l27-34.8V60.5    C391.9,48.7,382.4,39.1,370.6,39z" data-original="#000000" class="active-path" data-old_color="#000000" fill="#67A766"/>
	</g>
</g><g>
	<g>
		<path d="M391.9,141.9l-15.5,20c-4.5,5.8-10.3,10.5-16.9,13.6c-6.2,3-13,4.5-19.9,4.5H282c-20.4,0.1-36.9,16.6-36.9,37    s16.5,36.9,36.9,37h57.7c8.2-0.1,16-3.9,21-10.4L392,203L391.9,141.9z M304.4,227h-24c-5.5,0-10-4.5-10-10s4.5-10,10-10h24    c5.5,0,10,4.5,10,10S309.9,227,304.4,227z" data-original="#000000" class="active-path" data-old_color="#000000" fill="#67A766"/>
	</g>
</g></g> </svg>
