<svg width="111" height="112" viewBox="0 0 111 112" fill="none" xmlns="http://www.w3.org/2000/svg">
<rect width="111" height="112" fill="#FF9900"/>
<rect width="1440" height="900" transform="translate(-415 -420)" fill="#F5F7F6"/>
<g filter="url(#filter0_d)">
<rect x="-20" y="-39" width="320" height="238.79" rx="5" fill="white"/>
<rect x="-19.5" y="-38.5" width="319" height="237.79" rx="4.5" stroke="white"/>
</g>
<g filter="url(#filter1_d)">
<circle cx="53" cy="53" r="53" fill="#0277BD" fill-opacity="0.17"/>
</g>
<ellipse cx="52.5" cy="53" rx="43.5" ry="44" fill="#B71C1C"/>
<path d="M69 48C69 50.8958 68.0208 53.5729 66.0625 56.0312C64.1042 58.4896 61.4323 60.4323 58.0469 61.8594C54.6615 63.2865 50.9792 64 47 64C45.2083 64 43.375 63.8333 41.5 63.5C38.9167 65.3333 36.0208 66.6667 32.8125 67.5C32.0625 67.6875 31.1667 67.8542 30.125 68H30.0312C29.8021 68 29.5885 67.9167 29.3906 67.75C29.1927 67.5833 29.0729 67.3646 29.0312 67.0938C29.0104 67.0312 29 66.9635 29 66.8906C29 66.8177 29.0052 66.75 29.0156 66.6875C29.026 66.625 29.0469 66.5625 29.0781 66.5L29.1562 66.3438L29.2656 66.1719L29.3906 66.0156L29.5312 65.8594L29.6562 65.7188C29.7604 65.5938 30 65.3333 30.375 64.9375C30.75 64.5417 31.0208 64.2344 31.1875 64.0156C31.3542 63.7969 31.5885 63.4948 31.8906 63.1094C32.1927 62.724 32.4531 62.3229 32.6719 61.9062C32.8906 61.4896 33.1042 61.0312 33.3125 60.5312C30.7292 59.0312 28.6979 57.1875 27.2188 55C25.7396 52.8125 25 50.4792 25 48C25 45.1042 25.9792 42.4271 27.9375 39.9688C29.8958 37.5104 32.5677 35.5677 35.9531 34.1406C39.3385 32.7135 43.0208 32 47 32C50.9792 32 54.6615 32.7135 58.0469 34.1406C61.4323 35.5677 64.1042 37.5104 66.0625 39.9688C68.0208 42.4271 69 45.1042 69 48ZM81 56C81 58.5 80.2604 60.8385 78.7812 63.0156C77.3021 65.1927 75.2708 67.0312 72.6875 68.5312C72.8958 69.0312 73.1094 69.4896 73.3281 69.9062C73.5469 70.3229 73.8073 70.724 74.1094 71.1094C74.4115 71.4948 74.6458 71.7969 74.8125 72.0156C74.9792 72.2344 75.25 72.5417 75.625 72.9375C76 73.3333 76.2396 73.5938 76.3438 73.7188C76.3646 73.7396 76.4062 73.7865 76.4688 73.8594C76.5312 73.9323 76.5781 73.9844 76.6094 74.0156C76.6406 74.0469 76.6823 74.099 76.7344 74.1719C76.7865 74.2448 76.8229 74.3021 76.8438 74.3438L76.9219 74.5L76.9844 74.6875L77 74.8906L76.9688 75.0938C76.9062 75.3854 76.7708 75.6146 76.5625 75.7812C76.3542 75.9479 76.125 76.0208 75.875 76C74.8333 75.8542 73.9375 75.6875 73.1875 75.5C69.9792 74.6667 67.0833 73.3333 64.5 71.5C62.625 71.8333 60.7917 72 59 72C53.3542 72 48.4375 70.625 44.25 67.875C45.4583 67.9583 46.375 68 47 68C50.3542 68 53.5729 67.5312 56.6562 66.5938C59.7396 65.6562 62.4896 64.3125 64.9062 62.5625C67.5104 60.6458 69.5104 58.4375 70.9062 55.9375C72.3021 53.4375 73 50.7917 73 48C73 46.3958 72.7604 44.8125 72.2812 43.25C74.9688 44.7292 77.0938 46.5833 78.6562 48.8125C80.2188 51.0417 81 53.4375 81 56Z" fill="white"/>
<defs>
<filter id="filter0_d" x="-24" y="-39" width="328" height="246.79" filterUnits="userSpaceOnUse" color-interpolation-filters="sRGB">
<feFlood flood-opacity="0" result="BackgroundImageFix"/>
<feColorMatrix in="SourceAlpha" type="matrix" values="0 0 0 0 0 0 0 0 0 0 0 0 0 0 0 0 0 0 127 0"/>
<feOffset dy="4"/>
<feGaussianBlur stdDeviation="2"/>
<feColorMatrix type="matrix" values="0 0 0 0 0 0 0 0 0 0 0 0 0 0 0 0 0 0 0.25 0"/>
<feBlend mode="normal" in2="BackgroundImageFix" result="effect1_dropShadow"/>
<feBlend mode="normal" in="SourceGraphic" in2="effect1_dropShadow" result="shape"/>
</filter>
<filter id="filter1_d" x="0" y="0" width="111" height="112" filterUnits="userSpaceOnUse" color-interpolation-filters="sRGB">
<feFlood flood-opacity="0" result="BackgroundImageFix"/>
<feColorMatrix in="SourceAlpha" type="matrix" values="0 0 0 0 0 0 0 0 0 0 0 0 0 0 0 0 0 0 127 0"/>
<feOffset dx="3" dy="4"/>
<feGaussianBlur stdDeviation="1"/>
<feColorMatrix type="matrix" values="0 0 0 0 0 0 0 0 0 0 0 0 0 0 0 0 0 0 0.02 0"/>
<feBlend mode="normal" in2="BackgroundImageFix" result="effect1_dropShadow"/>
<feBlend mode="normal" in="SourceGraphic" in2="effect1_dropShadow" result="shape"/>
</filter>
</defs>
</svg>
