<svg width="111" height="112" viewBox="0 0 111 112" fill="none" xmlns="http://www.w3.org/2000/svg">
<rect width="111" height="112" fill="#FF9900"/>
<rect width="1440" height="900" transform="translate(-1084 -684)" fill="#F5F7F6"/>
<g filter="url(#filter0_d)">
<rect x="-20" y="-39" width="320" height="238.79" rx="5" fill="white"/>
<rect x="-19.5" y="-38.5" width="319" height="237.79" rx="4.5" stroke="white"/>
</g>
<g filter="url(#filter1_d)">
<circle cx="53" cy="53" r="53" fill="#0277BD" fill-opacity="0.17"/>
</g>
<ellipse cx="52.5" cy="53" rx="41.5" ry="42" fill="#FF9900"/>
<path d="M70.125 47.125H60.5V37.5C60.5 36.406 60.0654 35.3568 59.2918 34.5832C58.5182 33.8096 57.469 33.375 56.375 33.375H39.875C38.781 33.375 37.7318 33.8096 36.9582 34.5832C36.1846 35.3568 35.75 36.406 35.75 37.5V73.25C35.75 73.6147 35.8949 73.9644 36.1527 74.2223C36.4106 74.4801 36.7603 74.625 37.125 74.625H46.0625C46.2448 74.625 46.4197 74.5526 46.5486 74.4236C46.6776 74.2947 46.75 74.1198 46.75 73.9375V67.7887C46.75 67.0488 47.3189 66.4137 48.0588 66.3767C48.2447 66.3678 48.4305 66.3966 48.605 66.4616C48.7794 66.5266 48.9388 66.6263 49.0735 66.7547C49.2083 66.8831 49.3156 67.0375 49.3889 67.2086C49.4622 67.3797 49.5 67.5639 49.5 67.75V73.9375C49.5 74.1198 49.5724 74.2947 49.7014 74.4236C49.8303 74.5526 50.0052 74.625 50.1875 74.625H72.875C73.2397 74.625 73.5894 74.4801 73.8473 74.2223C74.1051 73.9644 74.25 73.6147 74.25 73.25V51.25C74.25 50.156 73.8154 49.1068 73.0418 48.3332C72.2682 47.5596 71.219 47.125 70.125 47.125ZM41.4288 69.1138C41.144 69.1511 40.8547 69.0982 40.6015 68.9627C40.3483 68.8271 40.1439 68.6157 40.017 68.3581C39.8901 68.1004 39.847 67.8095 39.8939 67.5262C39.9407 67.2428 40.0751 66.9812 40.2782 66.7782C40.4812 66.5751 40.7428 66.4407 41.0262 66.3939C41.3095 66.347 41.6004 66.3901 41.8581 66.517C42.1157 66.6439 42.3271 66.8483 42.4627 67.1015C42.5982 67.3547 42.6511 67.644 42.6138 67.9287C42.5745 68.2293 42.437 68.5084 42.2227 68.7227C42.0084 68.937 41.7293 69.0745 41.4288 69.1138ZM41.4288 62.2388C41.144 62.2761 40.8547 62.2232 40.6015 62.0877C40.3483 61.9521 40.1439 61.7407 40.017 61.4831C39.8901 61.2254 39.847 60.9345 39.8939 60.6512C39.9407 60.3678 40.0751 60.1062 40.2782 59.9032C40.4812 59.7001 40.7428 59.5657 41.0262 59.5189C41.3095 59.472 41.6004 59.5151 41.8581 59.642C42.1157 59.7689 42.3271 59.9733 42.4627 60.2265C42.5982 60.4797 42.6511 60.769 42.6138 61.0537C42.5745 61.3543 42.437 61.6334 42.2227 61.8477C42.0084 62.062 41.7293 62.1995 41.4288 62.2388ZM41.4288 55.3638C41.144 55.4011 40.8547 55.3482 40.6015 55.2127C40.3483 55.0771 40.1439 54.8657 40.017 54.6081C39.8901 54.3504 39.847 54.0595 39.8939 53.7762C39.9407 53.4928 40.0751 53.2312 40.2782 53.0282C40.4812 52.8251 40.7428 52.6907 41.0262 52.6439C41.3095 52.597 41.6004 52.6401 41.8581 52.767C42.1157 52.8939 42.3271 53.0983 42.4627 53.3515C42.5982 53.6047 42.6511 53.894 42.6138 54.1787C42.5745 54.4793 42.437 54.7584 42.2227 54.9727C42.0084 55.187 41.7293 55.3245 41.4288 55.3638ZM41.4288 48.4888C41.144 48.5261 40.8547 48.4732 40.6015 48.3377C40.3483 48.2021 40.1439 47.9907 40.017 47.7331C39.8901 47.4754 39.847 47.1845 39.8939 46.9012C39.9407 46.6178 40.0751 46.3562 40.2782 46.1532C40.4812 45.9501 40.7428 45.8157 41.0262 45.7689C41.3095 45.722 41.6004 45.7651 41.8581 45.892C42.1157 46.0189 42.3271 46.2233 42.4627 46.4765C42.5982 46.7297 42.6511 47.019 42.6138 47.3038C42.5745 47.6043 42.437 47.8834 42.2227 48.0977C42.0084 48.312 41.7293 48.4495 41.4288 48.4888ZM41.4288 41.6138C41.144 41.6511 40.8547 41.5982 40.6015 41.4627C40.3483 41.3271 40.1439 41.1157 40.017 40.8581C39.8901 40.6004 39.847 40.3095 39.8939 40.0262C39.9407 39.7428 40.0751 39.4812 40.2782 39.2782C40.4812 39.0751 40.7428 38.9407 41.0262 38.8939C41.3095 38.847 41.6004 38.8901 41.8581 39.017C42.1157 39.1439 42.3271 39.3483 42.4627 39.6015C42.5982 39.8547 42.6511 40.144 42.6138 40.4288C42.5745 40.7293 42.437 41.0084 42.2227 41.2227C42.0084 41.437 41.7293 41.5745 41.4288 41.6138ZM48.3038 62.2388C48.019 62.2761 47.7297 62.2232 47.4765 62.0877C47.2233 61.9521 47.0189 61.7407 46.892 61.4831C46.7651 61.2254 46.722 60.9345 46.7689 60.6512C46.8157 60.3678 46.9501 60.1062 47.1532 59.9032C47.3562 59.7001 47.6178 59.5657 47.9012 59.5189C48.1845 59.472 48.4754 59.5151 48.7331 59.642C48.9907 59.7689 49.2021 59.9733 49.3377 60.2265C49.4732 60.4797 49.5261 60.769 49.4888 61.0537C49.4495 61.3543 49.312 61.6334 49.0977 61.8477C48.8834 62.062 48.6043 62.1995 48.3038 62.2388ZM48.3038 55.3638C48.019 55.4011 47.7297 55.3482 47.4765 55.2127C47.2233 55.0771 47.0189 54.8657 46.892 54.6081C46.7651 54.3504 46.722 54.0595 46.7689 53.7762C46.8157 53.4928 46.9501 53.2312 47.1532 53.0282C47.3562 52.8251 47.6178 52.6907 47.9012 52.6439C48.1845 52.597 48.4754 52.6401 48.7331 52.767C48.9907 52.8939 49.2021 53.0983 49.3377 53.3515C49.4732 53.6047 49.5261 53.894 49.4888 54.1787C49.4495 54.4793 49.312 54.7584 49.0977 54.9727C48.8834 55.187 48.6043 55.3245 48.3038 55.3638ZM48.3038 48.4888C48.019 48.5261 47.7297 48.4732 47.4765 48.3377C47.2233 48.2021 47.0189 47.9907 46.892 47.7331C46.7651 47.4754 46.722 47.1845 46.7689 46.9012C46.8157 46.6178 46.9501 46.3562 47.1532 46.1532C47.3562 45.9501 47.6178 45.8157 47.9012 45.7689C48.1845 45.722 48.4754 45.7651 48.7331 45.892C48.9907 46.0189 49.2021 46.2233 49.3377 46.4765C49.4732 46.7297 49.5261 47.019 49.4888 47.3038C49.4495 47.6043 49.312 47.8834 49.0977 48.0977C48.8834 48.312 48.6043 48.4495 48.3038 48.4888ZM48.3038 41.6138C48.019 41.6511 47.7297 41.5982 47.4765 41.4627C47.2233 41.3271 47.0189 41.1157 46.892 40.8581C46.7651 40.6004 46.722 40.3095 46.7689 40.0262C46.8157 39.7428 46.9501 39.4812 47.1532 39.2782C47.3562 39.0751 47.6178 38.9407 47.9012 38.8939C48.1845 38.847 48.4754 38.8901 48.7331 39.017C48.9907 39.1439 49.2021 39.3483 49.3377 39.6015C49.4732 39.8547 49.5261 40.144 49.4888 40.4288C49.4495 40.7293 49.312 41.0084 49.0977 41.2227C48.8834 41.437 48.6043 41.5745 48.3038 41.6138ZM55.1787 69.1138C54.894 69.1511 54.6047 69.0982 54.3515 68.9627C54.0983 68.8271 53.8939 68.6157 53.767 68.3581C53.6401 68.1004 53.597 67.8095 53.6439 67.5262C53.6907 67.2428 53.8251 66.9812 54.0282 66.7782C54.2312 66.5751 54.4928 66.4407 54.7762 66.3939C55.0595 66.347 55.3504 66.3901 55.6081 66.517C55.8657 66.6439 56.0771 66.8483 56.2127 67.1015C56.3482 67.3547 56.4011 67.644 56.3638 67.9287C56.3245 68.2293 56.187 68.5084 55.9727 68.7227C55.7584 68.937 55.4793 69.0745 55.1787 69.1138ZM55.1787 62.2388C54.894 62.2761 54.6047 62.2232 54.3515 62.0877C54.0983 61.9521 53.8939 61.7407 53.767 61.4831C53.6401 61.2254 53.597 60.9345 53.6439 60.6512C53.6907 60.3678 53.8251 60.1062 54.0282 59.9032C54.2312 59.7001 54.4928 59.5657 54.7762 59.5189C55.0595 59.472 55.3504 59.5151 55.6081 59.642C55.8657 59.7689 56.0771 59.9733 56.2127 60.2265C56.3482 60.4797 56.4011 60.769 56.3638 61.0537C56.3245 61.3543 56.187 61.6334 55.9727 61.8477C55.7584 62.062 55.4793 62.1995 55.1787 62.2388ZM55.1787 55.3638C54.894 55.4011 54.6047 55.3482 54.3515 55.2127C54.0983 55.0771 53.8939 54.8657 53.767 54.6081C53.6401 54.3504 53.597 54.0595 53.6439 53.7762C53.6907 53.4928 53.8251 53.2312 54.0282 53.0282C54.2312 52.8251 54.4928 52.6907 54.7762 52.6439C55.0595 52.597 55.3504 52.6401 55.6081 52.767C55.8657 52.8939 56.0771 53.0983 56.2127 53.3515C56.3482 53.6047 56.4011 53.894 56.3638 54.1787C56.3245 54.4793 56.187 54.7584 55.9727 54.9727C55.7584 55.187 55.4793 55.3245 55.1787 55.3638ZM55.1787 48.4888C54.894 48.5261 54.6047 48.4732 54.3515 48.3377C54.0983 48.2021 53.8939 47.9907 53.767 47.7331C53.6401 47.4754 53.597 47.1845 53.6439 46.9012C53.6907 46.6178 53.8251 46.3562 54.0282 46.1532C54.2312 45.9501 54.4928 45.8157 54.7762 45.7689C55.0595 45.722 55.3504 45.7651 55.6081 45.892C55.8657 46.0189 56.0771 46.2233 56.2127 46.4765C56.3482 46.7297 56.4011 47.019 56.3638 47.3038C56.3245 47.6043 56.187 47.8834 55.9727 48.0977C55.7584 48.312 55.4793 48.4495 55.1787 48.4888ZM55.1787 41.6138C54.894 41.6511 54.6047 41.5982 54.3515 41.4627C54.0983 41.3271 53.8939 41.1157 53.767 40.8581C53.6401 40.6004 53.597 40.3095 53.6439 40.0262C53.6907 39.7428 53.8251 39.4812 54.0282 39.2782C54.2312 39.0751 54.4928 38.9407 54.7762 38.8939C55.0595 38.847 55.3504 38.8901 55.6081 39.017C55.8657 39.1439 56.0771 39.3483 56.2127 39.6015C56.3482 39.8547 56.4011 40.144 56.3638 40.4288C56.3245 40.7293 56.187 41.0084 55.9727 41.2227C55.7584 41.437 55.4793 41.5745 55.1787 41.6138ZM71.1562 71.875H60.5V49.875H70.125C70.4897 49.875 70.8394 50.0199 71.0973 50.2777C71.3551 50.5356 71.5 50.8853 71.5 51.25V71.5312C71.5 71.6224 71.4638 71.7099 71.3993 71.7743C71.3349 71.8388 71.2474 71.875 71.1562 71.875Z" fill="white"/>
<path d="M67.375 66.375C67.1031 66.375 66.8372 66.4556 66.6111 66.6067C66.385 66.7578 66.2087 66.9726 66.1047 67.2238C66.0006 67.4751 65.9734 67.7515 66.0264 68.0183C66.0795 68.285 66.2104 68.53 66.4027 68.7223C66.595 68.9146 66.84 69.0455 67.1068 69.0986C67.3735 69.1516 67.6499 69.1244 67.9012 69.0203C68.1524 68.9163 68.3672 68.74 68.5183 68.5139C68.6694 68.2878 68.75 68.0219 68.75 67.75C68.75 67.3853 68.6051 67.0356 68.3473 66.7777C68.0894 66.5199 67.7397 66.375 67.375 66.375Z" fill="white"/>
<path d="M67.375 59.5C67.1031 59.5 66.8372 59.5806 66.6111 59.7317C66.385 59.8828 66.2087 60.0976 66.1047 60.3488C66.0006 60.6001 65.9734 60.8765 66.0264 61.1433C66.0795 61.41 66.2104 61.655 66.4027 61.8473C66.595 62.0396 66.84 62.1705 67.1068 62.2236C67.3735 62.2766 67.6499 62.2494 67.9012 62.1453C68.1524 62.0413 68.3672 61.865 68.5183 61.6389C68.6694 61.4128 68.75 61.1469 68.75 60.875C68.75 60.5103 68.6051 60.1606 68.3473 59.9027C68.0894 59.6449 67.7397 59.5 67.375 59.5Z" fill="white"/>
<path d="M67.375 52.625C67.1031 52.625 66.8372 52.7056 66.6111 52.8567C66.385 53.0078 66.2087 53.2226 66.1047 53.4738C66.0006 53.7251 65.9734 54.0015 66.0264 54.2683C66.0795 54.535 66.2104 54.78 66.4027 54.9723C66.595 55.1646 66.84 55.2955 67.1068 55.3486C67.3735 55.4016 67.6499 55.3744 67.9012 55.2703C68.1524 55.1663 68.3672 54.99 68.5183 54.7639C68.6694 54.5378 68.75 54.2719 68.75 54C68.75 53.6353 68.6051 53.2856 68.3473 53.0277C68.0894 52.7699 67.7397 52.625 67.375 52.625Z" fill="white"/>
<path d="M61.875 66.375C61.6031 66.375 61.3372 66.4556 61.1111 66.6067C60.885 66.7578 60.7087 66.9726 60.6047 67.2238C60.5006 67.4751 60.4734 67.7515 60.5264 68.0183C60.5795 68.285 60.7104 68.53 60.9027 68.7223C61.095 68.9146 61.34 69.0455 61.6068 69.0986C61.8735 69.1516 62.1499 69.1244 62.4012 69.0203C62.6524 68.9163 62.8672 68.74 63.0183 68.5139C63.1694 68.2878 63.25 68.0219 63.25 67.75C63.25 67.3853 63.1051 67.0356 62.8473 66.7777C62.5894 66.5199 62.2397 66.375 61.875 66.375Z" fill="white"/>
<path d="M61.875 59.5C61.6031 59.5 61.3372 59.5806 61.1111 59.7317C60.885 59.8828 60.7087 60.0976 60.6047 60.3488C60.5006 60.6001 60.4734 60.8765 60.5264 61.1433C60.5795 61.41 60.7104 61.655 60.9027 61.8473C61.095 62.0396 61.34 62.1705 61.6068 62.2236C61.8735 62.2766 62.1499 62.2494 62.4012 62.1453C62.6524 62.0413 62.8672 61.865 63.0183 61.6389C63.1694 61.4128 63.25 61.1469 63.25 60.875C63.25 60.5103 63.1051 60.1606 62.8473 59.9027C62.5894 59.6449 62.2397 59.5 61.875 59.5Z" fill="white"/>
<path d="M61.875 52.625C61.6031 52.625 61.3372 52.7056 61.1111 52.8567C60.885 53.0078 60.7087 53.2226 60.6047 53.4738C60.5006 53.7251 60.4734 54.0015 60.5264 54.2683C60.5795 54.535 60.7104 54.78 60.9027 54.9723C61.095 55.1646 61.34 55.2955 61.6068 55.3486C61.8735 55.4016 62.1499 55.3744 62.4012 55.2703C62.6524 55.1663 62.8672 54.99 63.0183 54.7639C63.1694 54.5378 63.25 54.2719 63.25 54C63.25 53.6353 63.1051 53.2856 62.8473 53.0277C62.5894 52.7699 62.2397 52.625 61.875 52.625Z" fill="white"/>
<defs>
<filter id="filter0_d" x="-24" y="-39" width="328" height="246.79" filterUnits="userSpaceOnUse" color-interpolation-filters="sRGB">
<feFlood flood-opacity="0" result="BackgroundImageFix"/>
<feColorMatrix in="SourceAlpha" type="matrix" values="0 0 0 0 0 0 0 0 0 0 0 0 0 0 0 0 0 0 127 0"/>
<feOffset dy="4"/>
<feGaussianBlur stdDeviation="2"/>
<feColorMatrix type="matrix" values="0 0 0 0 0 0 0 0 0 0 0 0 0 0 0 0 0 0 0.25 0"/>
<feBlend mode="normal" in2="BackgroundImageFix" result="effect1_dropShadow"/>
<feBlend mode="normal" in="SourceGraphic" in2="effect1_dropShadow" result="shape"/>
</filter>
<filter id="filter1_d" x="0" y="0" width="111" height="112" filterUnits="userSpaceOnUse" color-interpolation-filters="sRGB">
<feFlood flood-opacity="0" result="BackgroundImageFix"/>
<feColorMatrix in="SourceAlpha" type="matrix" values="0 0 0 0 0 0 0 0 0 0 0 0 0 0 0 0 0 0 127 0"/>
<feOffset dx="3" dy="4"/>
<feGaussianBlur stdDeviation="1"/>
<feColorMatrix type="matrix" values="0 0 0 0 0 0 0 0 0 0 0 0 0 0 0 0 0 0 0.02 0"/>
<feBlend mode="normal" in2="BackgroundImageFix" result="effect1_dropShadow"/>
<feBlend mode="normal" in="SourceGraphic" in2="effect1_dropShadow" result="shape"/>
</filter>
</defs>
</svg>
