<svg width="111" height="112" viewBox="0 0 111 112" fill="none" xmlns="http://www.w3.org/2000/svg">
<rect width="111" height="112" fill="#FF9900"/>
<rect width="1440" height="900" transform="translate(-1086 -420)" fill="#F5F7F6"/>
<g filter="url(#filter0_d)">
<rect x="-20" y="-39" width="320" height="238.79" rx="5" fill="white"/>
<rect x="-19.5" y="-38.5" width="319" height="237.79" rx="4.5" stroke="white"/>
</g>
<g filter="url(#filter1_d)">
<circle cx="53" cy="53" r="53" fill="#0277BD" fill-opacity="0.17"/>
</g>
<ellipse cx="52.5" cy="53" rx="41.5" ry="42" fill="#4E93D1"/>
<path d="M51.3907 61.5623C51.3907 62.1093 51.6129 62.6339 52.0085 63.0207C52.4041 63.4075 52.9406 63.6248 53.5 63.6248C54.0595 63.6248 54.596 63.4075 54.9916 63.0207C55.3872 62.6339 55.6094 62.1093 55.6094 61.5623C55.6094 61.0153 55.3872 60.4907 54.9916 60.1039C54.596 59.7171 54.0595 59.4998 53.5 59.4998C52.9406 59.4998 52.4041 59.7171 52.0085 60.1039C51.6129 60.4907 51.3907 61.0153 51.3907 61.5623ZM54.5547 56.7498C54.7481 56.7498 54.9063 56.5951 54.9063 56.4061V44.7186C54.9063 44.5295 54.7481 44.3748 54.5547 44.3748H52.4454C52.252 44.3748 52.0938 44.5295 52.0938 44.7186V56.4061C52.0938 56.5951 52.252 56.7498 52.4454 56.7498H54.5547ZM72.1329 48.6717H69.5269C69.4126 48.6717 69.3072 48.7232 69.2413 48.8135L64.5611 55.1213L62.3682 52.165C62.3357 52.1208 62.2928 52.0848 62.2431 52.0601C62.1933 52.0354 62.1383 52.0228 62.0826 52.0233H59.4766C59.191 52.0233 59.024 52.3412 59.191 52.569L63.9898 59.0443C64.0555 59.1322 64.1414 59.2038 64.2407 59.253C64.34 59.3023 64.4497 59.328 64.5611 59.328C64.6724 59.328 64.7822 59.3023 64.8814 59.253C64.9807 59.2038 65.0667 59.1322 65.1324 59.0443L72.4185 49.2174C72.5855 48.9897 72.4185 48.6717 72.1329 48.6717ZM70.1993 61.8201H67.378C67.1363 61.8201 66.9122 61.9447 66.7803 62.1424C66.1566 63.1114 65.4224 64.008 64.5918 64.815C63.1642 66.212 61.4734 67.3253 59.6128 68.0936C57.6839 68.889 55.611 69.2967 53.5176 69.2924C51.4039 69.2924 49.3516 68.8885 47.4224 68.0936C45.5618 67.3253 43.871 66.212 42.4434 64.815C41.0112 63.4228 39.8707 61.7705 39.086 59.951C38.2686 58.069 37.8555 56.0623 37.8555 53.9998C37.8555 51.9373 38.2686 49.9307 39.086 48.0486C39.8726 46.2268 41.002 44.5897 42.4434 43.1846C43.8848 41.7795 45.5591 40.6752 47.4224 39.9061C49.3513 39.1106 51.4242 38.7029 53.5176 38.7072C55.6314 38.7072 57.6836 39.1111 59.6128 39.9061C61.4761 40.6752 63.1504 41.7795 64.5918 43.1846C65.4268 44.001 66.1563 44.8947 66.7803 45.8572C66.9078 46.0592 67.1363 46.1795 67.378 46.1795H70.1993C70.4629 46.1795 70.6299 45.9088 70.5157 45.6811C67.4219 39.6697 61.0894 35.5233 53.7505 35.4373C43.2564 35.317 34.5376 43.7088 34.5157 53.9654C34.4937 64.2307 43.0103 72.5623 53.5176 72.5623C60.9532 72.5623 67.3868 68.3943 70.5113 62.3186C70.5382 62.2663 70.551 62.2082 70.5486 62.1497C70.5461 62.0912 70.5284 62.0343 70.4972 61.9844C70.4659 61.9345 70.4222 61.8932 70.37 61.8645C70.3179 61.8357 70.2591 61.8204 70.1993 61.8201Z" fill="white"/>
<defs>
<filter id="filter0_d" x="-24" y="-39" width="328" height="246.79" filterUnits="userSpaceOnUse" color-interpolation-filters="sRGB">
<feFlood flood-opacity="0" result="BackgroundImageFix"/>
<feColorMatrix in="SourceAlpha" type="matrix" values="0 0 0 0 0 0 0 0 0 0 0 0 0 0 0 0 0 0 127 0"/>
<feOffset dy="4"/>
<feGaussianBlur stdDeviation="2"/>
<feColorMatrix type="matrix" values="0 0 0 0 0 0 0 0 0 0 0 0 0 0 0 0 0 0 0.25 0"/>
<feBlend mode="normal" in2="BackgroundImageFix" result="effect1_dropShadow"/>
<feBlend mode="normal" in="SourceGraphic" in2="effect1_dropShadow" result="shape"/>
</filter>
<filter id="filter1_d" x="0" y="0" width="111" height="112" filterUnits="userSpaceOnUse" color-interpolation-filters="sRGB">
<feFlood flood-opacity="0" result="BackgroundImageFix"/>
<feColorMatrix in="SourceAlpha" type="matrix" values="0 0 0 0 0 0 0 0 0 0 0 0 0 0 0 0 0 0 127 0"/>
<feOffset dx="3" dy="4"/>
<feGaussianBlur stdDeviation="1"/>
<feColorMatrix type="matrix" values="0 0 0 0 0 0 0 0 0 0 0 0 0 0 0 0 0 0 0.02 0"/>
<feBlend mode="normal" in2="BackgroundImageFix" result="effect1_dropShadow"/>
<feBlend mode="normal" in="SourceGraphic" in2="effect1_dropShadow" result="shape"/>
</filter>
</defs>
</svg>
