<svg width="18" height="12" viewBox="0 0 20 16" fill="none" xmlns="http://www.w3.org/2000/svg">
<path d="M8.52699 14.2554L1.23087 3.32009C1.08044 3.08621 1.00085 2.82104 1.00001 2.55097C0.999164 2.28089 1.0771 2.01533 1.22607 1.78069C1.37504 1.54606 1.58984 1.35053 1.84911 1.21356C2.10838 1.0766 2.40308 1.00297 2.70388 1H17.2961C17.5969 1.00297 17.8916 1.0766 18.1509 1.21356C18.4102 1.35053 18.625 1.54606 18.7739 1.78069C18.9229 2.01533 19.0008 2.28089 19 2.55097C18.9992 2.82104 18.9196 3.08621 18.7691 3.32009L11.473 14.2554C11.3194 14.4827 11.1032 14.6707 10.8452 14.8011C10.5872 14.9315 10.2961 15 10 15C9.7039 15 9.41281 14.9315 9.15479 14.8011C8.89678 14.6707 8.68056 14.4827 8.52699 14.2554Z" fill="#16172D" stroke="#16172D" stroke-width="2" stroke-linecap="round" stroke-linejoin="round"/>
</svg>
