<svg width="111" height="112" viewBox="0 0 111 112" fill="none" xmlns="http://www.w3.org/2000/svg">
<g filter="url(#filter0_d)">
<circle cx="53" cy="53" r="53" fill="#0277BD" fill-opacity="0.17"/>
</g>
<ellipse cx="52.5" cy="53" rx="39.5" ry="40" fill="#4E93D1"/>
<path d="M72.2083 35C72.6981 35 73.1161 35.1762 73.4625 35.5286C73.8208 35.8692 74 36.2803 74 36.7619V70.2381C74 70.7197 73.8208 71.1308 73.4625 71.4714C73.1161 71.8238 72.6981 72 72.2083 72H43.5417C43.0519 72 42.6339 71.8238 42.2875 71.4714C41.9292 71.1308 41.75 70.7197 41.75 70.2381V64.0714H32.7917C32.3019 64.0714 31.8839 63.8952 31.5375 63.5429C31.1792 63.2022 31 62.7911 31 62.3095V44.6905C31 44.2089 31.1792 43.7978 31.5375 43.4571C31.8719 43.1048 32.29 42.9286 32.7917 42.9286H41.75V36.7619C41.75 36.2803 41.9292 35.8692 42.2875 35.5286C42.6339 35.1762 43.0519 35 43.5417 35H72.2083ZM41.75 55.7552L44.2942 60.4419H48.1283L43.8642 53.6233L48.0567 46.9281H44.3658L42.0367 51.1567L41.9471 51.2976L41.8754 51.4562L40.7287 49.201L39.5462 46.9281H35.6404L39.7075 53.6586L35.2642 60.4419H39.1342L41.75 55.7552ZM56.5312 69.3571V64.0714H44.4375V69.3571H56.5312ZM56.5312 61.4286V54.8214H52.5V61.4286H56.5312ZM56.5312 52.1786V45.5714H52.5V52.1786H56.5312ZM56.5312 42.9286V37.6429H44.4375V42.9286H56.5312ZM71.3125 69.3571V64.0714H59.2188V69.3571H71.3125ZM71.3125 61.4286V54.8214H59.2188V61.4286H71.3125ZM71.3125 52.1786V45.5714H59.2188V52.1786H71.3125ZM71.3125 42.9286V37.6429H59.2188V42.9286H71.3125Z" fill="white"/>
<defs>
<filter id="filter0_d" x="0" y="0" width="111" height="112" filterUnits="userSpaceOnUse" color-interpolation-filters="sRGB">
<feFlood flood-opacity="0" result="BackgroundImageFix"/>
<feColorMatrix in="SourceAlpha" type="matrix" values="0 0 0 0 0 0 0 0 0 0 0 0 0 0 0 0 0 0 127 0"/>
<feOffset dx="3" dy="4"/>
<feGaussianBlur stdDeviation="1"/>
<feColorMatrix type="matrix" values="0 0 0 0 0 0 0 0 0 0 0 0 0 0 0 0 0 0 0.02 0"/>
<feBlend mode="normal" in2="BackgroundImageFix" result="effect1_dropShadow"/>
<feBlend mode="normal" in="SourceGraphic" in2="effect1_dropShadow" result="shape"/>
</filter>
</defs>
</svg>
