<svg width="136" height="29" viewBox="0 0 136 29" fill="none" xmlns="http://www.w3.org/2000/svg">
<path d="M40.7342 9.34689L40.781 11.4051C41.2488 10.6411 41.8335 10.068 42.5351 9.68603C43.2368 9.30402 44.0164 9.11301 44.874 9.11301C46.8698 9.11301 48.1366 9.9316 48.6746 11.5688C49.1267 10.7814 49.7309 10.1772 50.4872 9.75619C51.2434 9.3274 52.0776 9.11301 52.9897 9.11301C55.7028 9.11301 57.0866 10.5943 57.1412 13.5568V22H55.7378V13.662C55.7301 12.5316 55.4845 11.6935 55.0011 11.1478C54.5256 10.6021 53.7459 10.3292 52.6623 10.3292C51.6566 10.3448 50.8068 10.6722 50.1129 11.3115C49.4191 11.943 49.0332 12.7148 48.9552 13.627V22H47.5519V13.5568C47.5441 12.4731 47.2869 11.6662 46.7801 11.1361C46.2812 10.5982 45.5093 10.3292 44.4647 10.3292C43.5837 10.3292 42.8275 10.5826 42.196 11.0893C41.5645 11.5883 41.0967 12.3328 40.7927 13.3229V22H39.3894V9.34689H40.7342ZM62.2632 22H60.8599V9.34689H62.2632V22ZM60.6143 5.68662C60.6143 5.42155 60.7001 5.19936 60.8716 5.02005C61.0431 4.83294 61.277 4.73939 61.5732 4.73939C61.8695 4.73939 62.1034 4.83294 62.2749 5.02005C62.4542 5.19936 62.5439 5.42155 62.5439 5.68662C62.5439 5.95168 62.4542 6.17387 62.2749 6.35318C62.1034 6.53249 61.8695 6.62215 61.5732 6.62215C61.277 6.62215 61.0431 6.53249 60.8716 6.35318C60.7001 6.17387 60.6143 5.95168 60.6143 5.68662ZM70.7532 21.0528C71.7277 21.0528 72.5424 20.7799 73.1973 20.2342C73.8599 19.6807 74.2186 18.9673 74.2731 18.0941H75.618C75.579 18.866 75.3373 19.5715 74.8929 20.2108C74.4485 20.8423 73.856 21.3373 73.1154 21.696C72.3826 22.0546 71.5952 22.2339 70.7532 22.2339C69.0926 22.2339 67.7751 21.657 66.8005 20.5031C65.8338 19.3493 65.3505 17.7979 65.3505 15.8489V15.4279C65.3505 14.1805 65.5688 13.0773 66.0053 12.1184C66.4419 11.1595 67.0656 10.4189 67.8764 9.89652C68.695 9.37418 69.65 9.11301 70.7415 9.11301C72.1292 9.11301 73.2713 9.52621 74.1679 10.3526C75.0722 11.179 75.5556 12.2665 75.618 13.6153H74.2731C74.2108 12.6252 73.8521 11.8261 73.1973 11.218C72.5502 10.6099 71.7316 10.3058 70.7415 10.3058C69.4785 10.3058 68.4962 10.7619 67.7946 11.674C67.1007 12.5862 66.7538 13.8647 66.7538 15.5097V15.919C66.7538 17.5328 67.1007 18.7919 67.7946 19.6962C68.4962 20.6006 69.4824 21.0528 70.7532 21.0528ZM84.2717 10.5397C83.9754 10.4851 83.6597 10.4578 83.3244 10.4578C82.4513 10.4578 81.7106 10.7034 81.1025 11.1946C80.5022 11.6779 80.0734 12.3835 79.8162 13.3112V22H78.4246V9.34689H79.7928L79.8162 11.3583C80.5568 9.86144 81.7457 9.11301 83.3829 9.11301C83.7727 9.11301 84.0806 9.16369 84.3067 9.26504L84.2717 10.5397ZM85.4878 15.4863C85.4878 14.2701 85.7217 13.1748 86.1895 12.2003C86.6651 11.2258 87.3316 10.4695 88.1892 9.9316C89.0546 9.38587 90.033 9.11301 91.1244 9.11301C92.8084 9.11301 94.1727 9.70552 95.2174 10.8905C96.2621 12.0677 96.7844 13.6309 96.7844 15.5799V15.8722C96.7844 17.0962 96.5466 18.1994 96.0711 19.1817C95.6033 20.1562 94.9406 20.9085 94.0831 21.4387C93.2255 21.9688 92.2471 22.2339 91.1478 22.2339C89.4717 22.2339 88.1073 21.6453 87.0549 20.4681C86.0102 19.2831 85.4878 17.716 85.4878 15.767V15.4863ZM86.8911 15.8722C86.8911 17.3847 87.281 18.6282 88.0606 19.6027C88.848 20.5694 89.8771 21.0528 91.1478 21.0528C92.4108 21.0528 93.4321 20.5694 94.2117 19.6027C94.9991 18.6282 95.3928 17.3457 95.3928 15.7553V15.4863C95.3928 14.5196 95.2135 13.6348 94.8549 12.8318C94.4963 12.0288 93.9934 11.409 93.3463 10.9724C92.6993 10.528 91.9586 10.3058 91.1244 10.3058C89.8771 10.3058 88.8597 10.797 88.0723 11.7793C87.2849 12.7538 86.8911 14.0324 86.8911 15.615V15.8722ZM109.122 18.0357H102.526L101.146 22H98.0708L104.503 4.97327H107.157L113.601 22H110.513L109.122 18.0357ZM103.357 15.6501H108.292L105.824 8.58677L103.357 15.6501ZM118.501 15.6734V22H115.542V4.97327H122.056C123.958 4.97327 125.466 5.46832 126.581 6.45843C127.704 7.44854 128.265 8.75829 128.265 10.3877C128.265 12.056 127.716 13.3541 126.616 14.2818C125.525 15.2096 123.993 15.6734 122.02 15.6734H118.501ZM118.501 13.2995H122.056C123.108 13.2995 123.911 13.054 124.465 12.5628C125.018 12.0638 125.295 11.3466 125.295 10.4111C125.295 9.49112 125.014 8.75829 124.453 8.21256C123.892 7.65903 123.12 7.37448 122.137 7.35888H118.501V13.2995ZM133.609 22H130.768V9.34689H133.609V22ZM130.592 6.06083C130.592 5.62425 130.729 5.26173 131.002 4.97327C131.282 4.68481 131.68 4.54059 132.194 4.54059C132.709 4.54059 133.107 4.68481 133.387 4.97327C133.668 5.26173 133.808 5.62425 133.808 6.06083C133.808 6.48962 133.668 6.84824 133.387 7.13669C133.107 7.41735 132.709 7.55768 132.194 7.55768C131.68 7.55768 131.282 7.41735 131.002 7.13669C130.729 6.84824 130.592 6.48962 130.592 6.06083Z" fill="white"/>
<path d="M12.8303 3.84906L2.13843 9.19497L12.8303 14.5409L23.5221 9.19497L12.8303 3.84906Z" stroke="white" stroke-width="1.71069" stroke-linecap="round" stroke-linejoin="round"/>
<path d="M2.13843 19.8868L12.8303 25.2327L23.5221 19.8868" stroke="white" stroke-width="1.71069" stroke-linecap="round" stroke-linejoin="round"/>
<path d="M2.13843 14.5409L12.8303 19.8868L23.5221 14.5409" stroke="white" stroke-width="1.71069" stroke-linecap="round" stroke-linejoin="round"/>
</svg>
