<svg width="20" height="17" viewBox="0 0 20 17" fill="none" xmlns="http://www.w3.org/2000/svg">
<path d="M8.52699 14.3582L1.23087 3.42287C1.08044 3.18899 1.00085 2.92382 1.00001 2.65375C0.999164 2.38368 1.0771 2.11811 1.22607 1.88348C1.37504 1.64884 1.58984 1.45331 1.84911 1.31635C2.10838 1.17938 2.40308 1.10575 2.70388 1.10278H17.2961C17.5969 1.10575 17.8916 1.17938 18.1509 1.31635C18.4102 1.45331 18.625 1.64884 18.7739 1.88348C18.9229 2.11811 19.0008 2.38368 19 2.65375C18.9992 2.92382 18.9196 3.18899 18.7691 3.42287L11.473 14.3582C11.3194 14.5855 11.1032 14.7734 10.8452 14.9039C10.5872 15.0343 10.2961 15.1028 10 15.1028C9.7039 15.1028 9.41281 15.0343 9.15479 14.9039C8.89678 14.7734 8.68056 14.5855 8.52699 14.3582V14.3582Z" stroke="white" stroke-width="2" stroke-linecap="round" stroke-linejoin="round"/>
</svg>
