<svg width="111" height="112" viewBox="0 0 111 112" fill="none" xmlns="http://www.w3.org/2000/svg">
<rect width="111" height="112" fill="#FF9900"/>
<rect width="1440" height="900" transform="translate(-750 -420)" fill="#F5F7F6"/>
<g filter="url(#filter0_d)">
<rect x="-20" y="-39" width="320" height="238.79" rx="5" fill="white"/>
<rect x="-19.5" y="-38.5" width="319" height="237.79" rx="4.5" stroke="white"/>
</g>
<path d="M71.4878 31.5986C71.9305 31.5986 72.3084 31.7816 72.6215 32.1474C72.9454 32.5011 73.1074 32.9279 73.1074 33.4279V68.1834C73.1074 68.6834 72.9454 69.1103 72.6215 69.4639C72.3084 69.8298 71.9305 70.0127 71.4878 70.0127H45.5744C45.1317 70.0127 44.7538 69.8298 44.4407 69.4639C44.1168 69.1103 43.9548 68.6834 43.9548 68.1834V61.7811H35.8569C35.4142 61.7811 35.0363 61.5982 34.7232 61.2323C34.3993 60.8787 34.2373 60.4518 34.2373 59.9519V41.6595C34.2373 41.1595 34.3993 40.7326 34.7232 40.379C35.0255 40.0131 35.4034 39.8302 35.8569 39.8302H43.9548V33.4279C43.9548 32.9279 44.1168 32.5011 44.4407 32.1474C44.7538 31.7816 45.1317 31.5986 45.5744 31.5986H71.4878ZM43.9548 53.1471L46.2546 58.0129H49.7205L45.8659 50.9337L49.6558 43.9826H46.3194L44.214 48.3728L44.133 48.5191L44.0682 48.6837L43.0317 46.3423L41.9627 43.9826H38.432L42.1085 50.9703L38.0919 58.0129H41.5902L43.9548 53.1471ZM57.3164 67.2688V61.7811H46.3842V67.2688H57.3164ZM57.3164 59.0372V52.1776H53.6723V59.0372H57.3164ZM57.3164 49.4337V42.5741H53.6723V49.4337H57.3164ZM57.3164 39.8302V34.3425H46.3842V39.8302H57.3164ZM70.678 67.2688V61.7811H59.7458V67.2688H70.678ZM70.678 59.0372V52.1776H59.7458V59.0372H70.678ZM70.678 49.4337V42.5741H59.7458V49.4337H70.678ZM70.678 39.8302V34.3425H59.7458V39.8302H70.678Z" fill="white"/>
<g filter="url(#filter1_d)">
<circle cx="53" cy="53" r="53" fill="#0277BD" fill-opacity="0.17"/>
</g>
<ellipse cx="52.5" cy="53" rx="39.5" ry="40" fill="#31AA52"/>
<path d="M62.8333 37H44.5C43.0413 37 41.6424 37.5795 40.6109 38.6109C39.5795 39.6424 39 41.0413 39 42.5V55.3333C39 56.792 39.5795 58.191 40.6109 59.2224C41.6424 60.2539 43.0413 60.8333 44.5 60.8333H62.8333C64.292 60.8333 65.691 60.2539 66.7224 59.2224C67.7539 58.191 68.3333 56.792 68.3333 55.3333V42.5C68.3333 41.0413 67.7539 39.6424 66.7224 38.6109C65.691 37.5795 64.292 37 62.8333 37ZM64.6667 55.3333C64.6667 55.8196 64.4735 56.2859 64.1297 56.6297C63.7859 56.9735 63.3196 57.1667 62.8333 57.1667H44.5C44.0138 57.1667 43.5475 56.9735 43.2036 56.6297C42.8598 56.2859 42.6667 55.8196 42.6667 55.3333V42.5C42.6667 42.0138 42.8598 41.5475 43.2036 41.2036C43.5475 40.8598 44.0138 40.6667 44.5 40.6667H62.8333C63.3196 40.6667 63.7859 40.8598 64.1297 41.2036C64.4735 41.5475 64.6667 42.0138 64.6667 42.5V55.3333ZM58.25 48C57.5713 48.0023 56.9177 48.2572 56.4167 48.715C56.0224 48.3567 55.5326 48.1206 55.0067 48.0354C54.4809 47.9502 53.9416 48.0196 53.4544 48.2351C52.9672 48.4507 52.5531 48.8031 52.2624 49.2495C51.9717 49.696 51.817 50.2173 51.817 50.75C51.817 51.2827 51.9717 51.804 52.2624 52.2505C52.5531 52.6969 52.9672 53.0493 53.4544 53.2649C53.9416 53.4804 54.4809 53.5498 55.0067 53.4646C55.5326 53.3794 56.0224 53.1433 56.4167 52.785C56.7477 53.0859 57.1472 53.3015 57.5805 53.4131C58.0137 53.5246 58.4676 53.5288 58.9029 53.4253C59.3381 53.3217 59.7415 53.1135 60.0781 52.8188C60.4146 52.524 60.6742 52.1516 60.8343 51.7338C60.9943 51.3161 61.05 50.8656 60.9966 50.4214C60.9431 49.9772 60.7821 49.5528 60.5275 49.1849C60.2729 48.8171 59.9324 48.5169 59.5355 48.3104C59.1386 48.1039 58.6974 47.9974 58.25 48ZM55.5 64.5C55.0138 64.5 54.5475 64.6932 54.2036 65.037C53.8598 65.3808 53.6667 65.8471 53.6667 66.3333V68.1667C53.6667 68.6529 53.4735 69.1192 53.1297 69.463C52.7859 69.8068 52.3196 70 51.8333 70H33.5C33.0138 70 32.5475 69.8068 32.2036 69.463C31.8598 69.1192 31.6667 68.6529 31.6667 68.1667V60.8333H33.5C33.9862 60.8333 34.4525 60.6402 34.7964 60.2964C35.1402 59.9525 35.3333 59.4862 35.3333 59C35.3333 58.5138 35.1402 58.0475 34.7964 57.7036C34.4525 57.3598 33.9862 57.1667 33.5 57.1667H31.6667V55.3333C31.6667 54.8471 31.8598 54.3808 32.2036 54.037C32.5475 53.6932 33.0138 53.5 33.5 53.5C33.9862 53.5 34.4525 53.3068 34.7964 52.963C35.1402 52.6192 35.3333 52.1529 35.3333 51.6667C35.3333 51.1804 35.1402 50.7141 34.7964 50.3703C34.4525 50.0265 33.9862 49.8333 33.5 49.8333C32.0413 49.8333 30.6424 50.4128 29.6109 51.4442C28.5795 52.4757 28 53.8746 28 55.3333V68.1667C28 69.6254 28.5795 71.0243 29.6109 72.0558C30.6424 73.0872 32.0413 73.6667 33.5 73.6667H51.8333C53.292 73.6667 54.691 73.0872 55.7224 72.0558C56.7539 71.0243 57.3333 69.6254 57.3333 68.1667V66.3333C57.3333 65.8471 57.1402 65.3808 56.7964 65.037C56.4525 64.6932 55.9862 64.5 55.5 64.5ZM37.1667 66.3333H39C39.4862 66.3333 39.9525 66.1402 40.2964 65.7964C40.6402 65.4525 40.8333 64.9862 40.8333 64.5C40.8333 64.0138 40.6402 63.5475 40.2964 63.2036C39.9525 62.8598 39.4862 62.6667 39 62.6667H37.1667C36.6804 62.6667 36.2141 62.8598 35.8703 63.2036C35.5265 63.5475 35.3333 64.0138 35.3333 64.5C35.3333 64.9862 35.5265 65.4525 35.8703 65.7964C36.2141 66.1402 36.6804 66.3333 37.1667 66.3333Z" fill="white"/>
<defs>
<filter id="filter0_d" x="-24" y="-39" width="328" height="246.79" filterUnits="userSpaceOnUse" color-interpolation-filters="sRGB">
<feFlood flood-opacity="0" result="BackgroundImageFix"/>
<feColorMatrix in="SourceAlpha" type="matrix" values="0 0 0 0 0 0 0 0 0 0 0 0 0 0 0 0 0 0 127 0"/>
<feOffset dy="4"/>
<feGaussianBlur stdDeviation="2"/>
<feColorMatrix type="matrix" values="0 0 0 0 0 0 0 0 0 0 0 0 0 0 0 0 0 0 0.25 0"/>
<feBlend mode="normal" in2="BackgroundImageFix" result="effect1_dropShadow"/>
<feBlend mode="normal" in="SourceGraphic" in2="effect1_dropShadow" result="shape"/>
</filter>
<filter id="filter1_d" x="0" y="0" width="111" height="112" filterUnits="userSpaceOnUse" color-interpolation-filters="sRGB">
<feFlood flood-opacity="0" result="BackgroundImageFix"/>
<feColorMatrix in="SourceAlpha" type="matrix" values="0 0 0 0 0 0 0 0 0 0 0 0 0 0 0 0 0 0 127 0"/>
<feOffset dx="3" dy="4"/>
<feGaussianBlur stdDeviation="1"/>
<feColorMatrix type="matrix" values="0 0 0 0 0 0 0 0 0 0 0 0 0 0 0 0 0 0 0.02 0"/>
<feBlend mode="normal" in2="BackgroundImageFix" result="effect1_dropShadow"/>
<feBlend mode="normal" in="SourceGraphic" in2="effect1_dropShadow" result="shape"/>
</filter>
</defs>
</svg>
