<svg width="220" height="55" viewBox="0 0 220 55" fill="none" xmlns="http://www.w3.org/2000/svg">
<path d="M64.3242 20.207L64.3789 22.6133C64.9258 21.7201 65.6094 21.0501 66.4297 20.6035C67.25 20.1569 68.1615 19.9336 69.1641 19.9336C71.4974 19.9336 72.9785 20.8906 73.6074 22.8047C74.1361 21.8841 74.8424 21.1777 75.7266 20.6855C76.6107 20.1842 77.5859 19.9336 78.6523 19.9336C81.8242 19.9336 83.4421 21.6654 83.5059 25.1289V35H81.8652V25.252C81.8561 23.9303 81.569 22.9505 81.0039 22.3125C80.4479 21.6745 79.5365 21.3555 78.2695 21.3555C77.0938 21.3737 76.1003 21.7565 75.2891 22.5039C74.4779 23.2422 74.0267 24.1445 73.9355 25.2109V35H72.2949V25.1289C72.2858 23.862 71.985 22.9186 71.3926 22.2988C70.8092 21.6699 69.9069 21.3555 68.6855 21.3555C67.6556 21.3555 66.7715 21.6517 66.0332 22.2441C65.2949 22.8275 64.748 23.6979 64.3926 24.8555V35H62.752V20.207H64.3242ZM89.4941 35H87.8535V20.207H89.4941V35ZM87.5664 15.9277C87.5664 15.6178 87.6667 15.3581 87.8672 15.1484C88.0677 14.9297 88.3411 14.8203 88.6875 14.8203C89.0339 14.8203 89.3073 14.9297 89.5078 15.1484C89.7174 15.3581 89.8223 15.6178 89.8223 15.9277C89.8223 16.2376 89.7174 16.4974 89.5078 16.707C89.3073 16.9167 89.0339 17.0215 88.6875 17.0215C88.3411 17.0215 88.0677 16.9167 87.8672 16.707C87.6667 16.4974 87.5664 16.2376 87.5664 15.9277ZM99.4199 33.8926C100.559 33.8926 101.512 33.5736 102.277 32.9355C103.052 32.2884 103.471 31.4544 103.535 30.4336H105.107C105.062 31.3359 104.779 32.1608 104.26 32.9082C103.74 33.6465 103.048 34.2253 102.182 34.6445C101.325 35.0638 100.404 35.2734 99.4199 35.2734C97.4785 35.2734 95.9382 34.599 94.7988 33.25C93.6686 31.901 93.1035 30.0872 93.1035 27.8086V27.3164C93.1035 25.8581 93.3587 24.5684 93.8691 23.4473C94.3796 22.3262 95.1087 21.4603 96.0566 20.8496C97.0137 20.2389 98.1302 19.9336 99.4062 19.9336C101.029 19.9336 102.364 20.4167 103.412 21.3828C104.469 22.349 105.035 23.6204 105.107 25.1973H103.535C103.462 24.0397 103.043 23.1055 102.277 22.3945C101.521 21.6836 100.564 21.3281 99.4062 21.3281C97.9297 21.3281 96.7812 21.8613 95.9609 22.9277C95.1497 23.9941 94.7441 25.4889 94.7441 27.4121V27.8906C94.7441 29.7773 95.1497 31.2493 95.9609 32.3066C96.7812 33.3639 97.9342 33.8926 99.4199 33.8926ZM115.225 21.6016C114.878 21.5378 114.509 21.5059 114.117 21.5059C113.096 21.5059 112.23 21.793 111.52 22.3672C110.818 22.9323 110.316 23.7572 110.016 24.8418V35H108.389V20.207H109.988L110.016 22.5586C110.882 20.8086 112.271 19.9336 114.186 19.9336C114.641 19.9336 115.001 19.9928 115.266 20.1113L115.225 21.6016ZM116.646 27.3848C116.646 25.9629 116.92 24.6823 117.467 23.543C118.023 22.4036 118.802 21.5195 119.805 20.8906C120.816 20.2526 121.96 19.9336 123.236 19.9336C125.205 19.9336 126.8 20.6263 128.021 22.0117C129.243 23.388 129.854 25.2155 129.854 27.4941V27.8359C129.854 29.2669 129.576 30.5566 129.02 31.7051C128.473 32.8444 127.698 33.724 126.695 34.3438C125.693 34.9635 124.549 35.2734 123.264 35.2734C121.304 35.2734 119.709 34.5853 118.479 33.209C117.257 31.8236 116.646 29.9915 116.646 27.7129V27.3848ZM118.287 27.8359C118.287 29.6042 118.743 31.0579 119.654 32.1973C120.575 33.3275 121.778 33.8926 123.264 33.8926C124.74 33.8926 125.934 33.3275 126.846 32.1973C127.766 31.0579 128.227 29.5586 128.227 27.6992V27.3848C128.227 26.2546 128.017 25.2201 127.598 24.2812C127.178 23.3424 126.59 22.6178 125.834 22.1074C125.077 21.5879 124.212 21.3281 123.236 21.3281C121.778 21.3281 120.589 21.9023 119.668 23.0508C118.747 24.1901 118.287 25.6849 118.287 27.5352V27.8359ZM144.277 30.3652H136.566L134.953 35H131.357L138.877 15.0938H141.98L149.514 35H145.904L144.277 30.3652ZM137.537 27.5762H143.307L140.422 19.3184L137.537 27.5762ZM155.242 27.6035V35H151.783V15.0938H159.398C161.622 15.0938 163.386 15.6725 164.689 16.8301C166.002 17.9876 166.658 19.5189 166.658 21.4238C166.658 23.3743 166.016 24.8919 164.73 25.9766C163.454 27.0612 161.663 27.6035 159.357 27.6035H155.242ZM155.242 24.8281H159.398C160.629 24.8281 161.568 24.541 162.215 23.9668C162.862 23.3835 163.186 22.5449 163.186 21.4512C163.186 20.3757 162.857 19.5189 162.201 18.8809C161.545 18.2337 160.643 17.901 159.494 17.8828H155.242V24.8281ZM172.906 35H169.584V20.207H172.906V35ZM169.379 16.3652C169.379 15.8548 169.538 15.431 169.857 15.0938C170.186 14.7565 170.65 14.5879 171.252 14.5879C171.854 14.5879 172.318 14.7565 172.646 15.0938C172.975 15.431 173.139 15.8548 173.139 16.3652C173.139 16.8665 172.975 17.2858 172.646 17.623C172.318 17.9512 171.854 18.1152 171.252 18.1152C170.65 18.1152 170.186 17.9512 169.857 17.623C169.538 17.2858 169.379 16.8665 169.379 16.3652Z" fill="#010216"/>
<path d="M25.0003 4.16663L4.16699 14.5833L25.0003 25L45.8337 14.5833L25.0003 4.16663Z" stroke="#010216" stroke-width="3" stroke-linecap="round" stroke-linejoin="round"/>
<path d="M4.16699 35.4166L25.0003 45.8333L45.8337 35.4166" stroke="#010216" stroke-width="3" stroke-linecap="round" stroke-linejoin="round"/>
<path d="M4.16699 25L25.0003 35.4167L45.8337 25" stroke="#010216" stroke-width="3" stroke-linecap="round" stroke-linejoin="round"/>
</svg>
